
<svg xmlns="http://www.w3.org/2000/svg" version="1.1" xmlns:xlink="http://www.w3.org/1999/xlink" preserveAspectRatio="none" x="0px" y="0px" width="200px" height="100px" viewBox="0 0 200 100">
<defs>
<g id="Layer0_0_FILL">
<path fill="#000000" stroke="none" d="
M 35 57.75
L 35 58.35 45.6 50.65 45.6 50.1 35 57.75
M 29.55 23.6
L 27.5 22.95 19.6 31.5 19.6 70.45 30.45 78.75 35.25 75.5 34.95 74.65 34.95 74.9 24.05 66.6 24.05 27.65 27.65 23.6 29.55 23.6
M 39.75 33.8
L 35 33.8 35 37.65 35.25 37.65 35.25 43.75 39.75 40.35 39.75 33.8
M 56 27.8
L 56.35 27.45 55.5 27.45 51.5 31.95 51.5 70.45 61.9 78.75 66.6 75.25 66.6 78.75 77.55 70.45 77.55 70 71.1 74.9 71.1 58.3 66.4 58.3 66.4 74.9 56 66.6 56 27.8
M 66.6 47.65
L 71.1 47.65 71.1 34.3 66.4 34.3 66.4 38.15 66.6 38.15 66.6 47.65
M 103.3 54.85
L 102.7 54.2 98.65 57.7 98.65 63.35 103.1 59.65 103.1 54.85 103.3 54.85
M 88.05 26.15
L 87.6 22.95 83.55 27.45 83.55 70.45 95.5 80 113.5 66.45 113.4 66.35 99.95 76.15 88.05 66.6 88.05 26.15
M 119.3 27.45
L 115.5 31.65 115.5 70.45 125.85 78.75 130.55 75.4 130.55 78.75 141.5 70.45 141.5 70 135.05 74.9 135.05 58.3 130.35 58.3 130.35 74.9 120 66.6 120 27.8 120.35 27.45 119.3 27.45
M 130.55 38.15
L 130.55 47.65 135.05 47.65 135.05 34.3 130.35 34.3 130.35 38.15 130.55 38.15
M 173.6 69.65
L 163.95 76.15 151.9 66.6 151.9 57.55 151.45 56.8 147.4 61.4 147.4 70.45 159.45 80 173.6 69.65
M 162.3 57.55
L 162.3 58.5 162.5 58.6 162.5 63.25 167 59.55 167 54.75 151.9 46.15 151.9 27.15 154.75 23.6 155.7 23.6 154.2 23.2 147.4 32 147.4 50 160.7 57.55 162.3 57.55
M 178.45 37
L 177.95 36.45 177.95 36.75 167 36.75 167 33.8 162.3 33.8 162.3 37.65 162.5 37.65 162.5 40.6 173.45 40.6 178.45 37 Z"/>

<path fill="#FFFFFF" stroke="none" d="
M 50.1 46.8
L 50.1 27.5 45.95 23.6 29.55 23.6 27.65 23.6 24.05 27.65 24.05 66.6 34.95 74.9 34.95 74.65 35 58.35 35 57.75 45.6 50.1 50.1 46.8
M 35 33.8
L 39.75 33.8 39.75 40.35 35.25 43.75 35 43.9 35 37.65 35 33.8
M 82.05 66.6
L 82.05 27.55 78.05 23.6 59.85 23.6 56.35 27.45 56 27.8 56 66.6 66.4 74.9 66.4 58.3 71.1 58.3 71.1 74.9 77.55 70 82.05 66.6
M 66.6 47.65
L 66.4 47.65 66.4 38.15 66.4 34.3 71.1 34.3 71.1 47.65 66.6 47.65
M 98.4 23.6
L 88.05 23.6 88.05 26.15 88.05 66.6 99.95 76.15 113.4 66.35 114.05 65.85 114.05 54.85 103.3 54.85 103.1 54.85 103.1 59.65 98.65 63.35 98.4 63.55 98.4 23.6
M 142.05 23.6
L 123.8 23.6 120.35 27.45 120 27.8 120 66.6 130.35 74.9 130.35 58.3 135.05 58.3 135.05 74.9 141.5 70 146 66.6 146 27.55 142.05 23.6
M 130.35 38.15
L 130.35 34.3 135.05 34.3 135.05 47.65 130.55 47.65 130.35 47.65 130.35 38.15
M 177.95 36.45
L 177.95 27.75 174.55 23.6 155.7 23.6 154.75 23.6 151.9 27.15 151.9 46.15 167 54.75 167 59.55 162.5 63.25 162.3 63.4 162.3 58.5 162.3 57.55 160.7 57.55 151.9 57.55 151.9 66.6 163.95 76.15 173.6 69.65 177.95 66.7 177.95 49.45 162.3 41.15 162.3 37.65 162.3 33.8 167 33.8 167 36.75 177.95 36.75 177.95 36.45 Z"/>
</g>

<path id="Layer0_0_1_STROKES" stroke="#1D1D1D" stroke-width="1" stroke-linejoin="miter" stroke-linecap="butt" stroke-miterlimit="10" fill="none" d="
M 162.3 37.65
L 162.3 41.15 177.95 49.45 177.95 66.7 173.6 69.65
M 151.9 57.55
L 160.7 57.55
M 155.7 23.6
L 174.55 23.6 177.95 27.75 177.95 36.45 177.95 36.75 167 36.75 167 33.8 162.3 33.8 162.3 37.65
M 160.7 57.55
L 162.3 57.55 162.3 58.5
M 162.5 63.25
L 167 59.55 167 54.75 151.9 46.15 151.9 27.15 154.75 23.6 155.7 23.6
M 162.3 58.5
L 162.3 63.4 162.5 63.25
M 173.6 69.65
L 163.95 76.15 151.9 66.6 151.9 57.55
M 130.35 38.15
L 130.35 47.65 130.55 47.65 135.05 47.65 135.05 34.3 130.35 34.3 130.35 38.15 Z
M 120.35 27.45
L 123.8 23.6 142.05 23.6 146 27.55 146 66.6 141.5 70
M 120.35 27.45
L 120 27.8 120 66.6 130.35 74.9 130.35 58.3 135.05 58.3 135.05 74.9 141.5 70
M 88.05 26.15
L 88.05 23.6 98.4 23.6 98.4 63.55 98.65 63.35
M 103.3 54.85
L 114.05 54.85 114.05 65.85 113.4 66.35
M 88.05 26.15
L 88.05 66.6 99.95 76.15 113.4 66.35
M 98.65 63.35
L 103.1 59.65 103.1 54.85 103.3 54.85
M 56.35 27.45
L 59.85 23.6 78.05 23.6 82.05 27.55 82.05 66.6 77.55 70
M 56.35 27.45
L 56 27.8 56 66.6 66.4 74.9 66.4 58.3 71.1 58.3 71.1 74.9 77.55 70
M 29.55 23.6
L 45.95 23.6 50.1 27.5 50.1 46.8 45.6 50.1
M 35 58.35
L 34.95 74.65
M 29.55 23.6
L 27.65 23.6 24.05 27.65 24.05 66.6 34.95 74.9 34.95 74.65
M 66.4 38.15
L 66.4 47.65 66.6 47.65
M 66.4 38.15
L 66.4 34.3 71.1 34.3 71.1 47.65 66.6 47.65
M 35.25 43.75
L 39.75 40.35 39.75 33.8 35 33.8 35 37.65
M 35.25 43.75
L 35 43.9 35 37.65
M 45.6 50.1
L 35 57.75 35 58.35"/>
</defs>

<g transform="matrix( 1, 0, 0, 1, 0,0) ">
<use xlink:href="#Layer0_0_FILL"/>

<use xlink:href="#Layer0_0_1_STROKES"/>
</g>
</svg>
