<svg xmlns="http://www.w3.org/2000/svg" xmlns:xlink="http://www.w3.org/1999/xlink" preserveAspectRatio="none" width="200" height="100"><defs><path id="b" stroke="#1D1D1D" stroke-width="1" stroke-linejoin="miter" stroke-linecap="butt" stroke-miterlimit="10" fill="none" d="M4155.4 22.075l.3-.375h19.8l3.4 4.15v9h-.55m-14.9 4.5l15.45 8.2V64.8l-.325.2m-25.725-8.3v-1.05h7.375m-4.825-33.575l-2.55 3.175v19l15.1 8.6v4.8l-4.7 3.85v-5.85h-3.025m-28.425-9.9h4.2V32.4h-4.7v4m.5 9.35h-.5V36.4m47.05-1.55h-10.4V31.9h-4.7v7.35l.2.1m-42.325-13.65l3.625-4H4143l3.95 3.95V64.7l-4.2 3.175M4121.125 25.7l-.175.2v38.8l10.35 8.3V56.4h4.7V73l6.75-5.125M4178.575 65l-13.675 9.25-12.05-9.55v-8M4089 22.25v-.55h10.35v39.95l.55-.45m4.5-8.25h10.6v11l-.55.4M4089 22.25V64.7l11.9 9.55 13.55-9.9m-47.1-27.95v9.35h4.7V32.4h-4.7v4zm11.4 31.525l-6.7 5.075V56.4h-4.7V73l-10.4-8.3V25.9l.175-.2m21.625 42.225L4083 64.7V25.65l-4-3.95h-18.2l-3.675 4m-27.225-4h17l4.15 3.9v19.3l-4.6 3.325m-10.5 8.3L4035.9 73l-.075-.05M4029.9 21.7h-1.3l-3.6 4.05V64.7l10.825 8.25M4099.9 61.2l4.15-3.45v-4.8h.35m-68.3-11.05l4.6-3.45V31.9h-4.75v4m.15 6l-.15.1v-6.1m-57.05-1.175v.125h-10.95V31.9h-4.7v6.7m15.65-3.875V25.85l-3.4-4.15h-19.8l-2.85 3.55v19l15.1 8.6v4.8l-4.7 3.85v-5.85h-10.4v9.05l12.05 9.55 4.725-3.175 9.275-6.275V47.55l-15.65-8.3v-.65m83.2 9.625l-10.5 7.625v.675M3931.8 45.75h4.2V32.4h-4.7v3.25m.5 10.1h-.5v-10.1m-9.5-10.7l2.95-3.25H3943l3.95 3.95V64.7l-4.2 3.175M3921.8 24.95l-.85.95v38.8l10.35 8.3V56.4h4.7V73l6.75-5.125m-53.7-46.175h10.3v39.75m5.7-8.5h9.95v11l-6.4 4.65q-1.0195.7605-2.05 1.525l-2.8 2.075-2.85 2.05-11.9-9.55v-43h.05m10.3 39.75v.2l4.7-3.9v-4.8h1m-72.8-31.25h14.65l4.15 3.9v19.3l-15.1 10.95-.05 16.575m-3.65-50.725h-3.65l-3.6 4.05V64.7l10.9 8.3v-.575m31.45-36.775v10.1h.45m-.45-10.1V32.4h4.7v13.35h-4.25m-9.975-20.8l2.975-3.25h18.2l4 3.95V64.7l-4.25 3.225-6.7 5.075V56.4h-4.7V73l-10.4-8.3V25.9l.875-.95zM3835.95 41.8v.2l4.75-3.55V31.9h-4.75v9.9zm-57.05-7.875v.925h-1.275m-14.375 2.5v1.9l15.65 8.3V64.8l-14 9.45-.65-.5m-10.825-18.1h9.775m-1.75-33.95h14.05l3.4 4.15v8.075m-1.275.925h-9.675V31.9h-4.7v5.45m-.05 18.3h.05v5.85l4.7-3.85v-4.8l-15.1-8.6v-19l2.85-3.55h5.75m-29.65 24.05h4.2V32.4h-4.7v2m.5 11.35h-.5V34.4m-8.35-10.7l1.8-2H3743l3.95 3.95V64.7L3736 73v-1.175m-4.7.175v1l-.65-.525m-7.7-48.775l-2 2.2v38.8l9.7 7.775m33.6 1.275l-11.4-9.05v-9.05h.575M3736 71.825V56.4h-4.7V72m-42.1-50.3h10.15v38.5m6.8-7.25h8.85v11l-14.1 10.3-.725-.575M3689.2 21.7h-.2v43l11.175 8.975m-41.2-49.975l1.825-2h18.2l4 3.95V64.7l-10.95 8.3v-1.225m-4.7.075V73l-.75-.6m-7.625-48.7l-2.025 2.2v38.8l9.65 7.7m-30.5-50.7h10.8l4.15 3.9v19.3l-15.1 10.95-.05 15.325m0 .7V73l-.775-.6m.975-50.7h-7.5l-3.6 4.05V64.7l10.125 7.7m32.675-26.65h4.25V32.4h-4.7v2m.45 11.35h-.45V34.4m4.7 37.375V56.4h-4.7v15.45m32-11.65v1.45l4.7-3.9v-4.8h2.1m-70.2-12.4V42l4.75-3.55V31.9h-4.75v8.65zM3566.1 21.7h9.4l3.4 4.15v6.375m0 .45v2.175h-3.025m-12.625 1.25v3.15l15.65 8.3V64.8l-14 9.45-1.45-1.15m-9.275-17.45h9.025m2.9-33.95h-10.4l-2.85 3.55v19l15.1 8.6v4.8l-4.7 3.85v-5.85h-.05m15.7-23.425v.45m-3.025 2.175h-7.925V31.9h-4.7v4.2m72.65 35.075v.7M3524.075 22.45l.675-.75H3543l3.95 3.95V64.7L3536 73v-2.425m-4.7.175V73l-1.475-1.2m-5.75-49.35l-3.125 3.45v38.8l8.875 7.1m1.475-38.65v12.6h4.7V32.4h-4.7v.75zm-41.925-11.45h9.975v37.25m7.9-6h7.75v11l-14.1 10.3-1.525-1.225m-10-51.325H3489v43l10.375 8.325m-.025-14.075v2.7l4.7-3.9v-4.8h3.2m56.2 20.15l-10.6-8.4v-9.05h1.325M3536 70.575V56.4h-4.7v14.35m-71.175-48.3l.675-.75h18.2l4 3.95V64.7l-10.95 8.3v-2.475m-4.7.05V73l-1.575-1.25m-5.65-49.3l-3.175 3.45v38.8l8.825 7.05m-25.8-50.05h6.925l4.15 3.9v19.3l-15.1 10.95-.05 14.075m0 .7V73l-1.65-1.25m5.725-50.05H3428.6l-3.6 4.05V64.7l9.25 7.05m33.55-26h4.25V32.4h-4.7v.75m.45 12.6h-.45v-12.6m-31.4 6.15V42l4.75-3.55V31.9h-4.75v7.4zm-.05 30.625v.7m36.15-.1V56.4h-4.7v14.175m-96.6-48.875h4.75l3.4 4.15v5.125m0 .45v3.425h-10.95m-4.7 0v4.4l15.65 8.3V64.8l-14 9.45-2.275-1.8m-7.675-16.8h8.25m7.55-33.95h-15.05l-2.85 3.55v19l15.1 8.6v4.8l-4.7 3.85v-5.85h-.05m15.7-24.675v.45m-10.95 3.425V31.9h-4.7v2.95M3329 71.15l-8.05-6.45V25.9l3.8-4.2h14.55M3329 71.15l2.3 1.85V56.4h4.7V73l10.95-8.3V25.65L3343 21.7h-3.7m-7.5 10.7h-.5v12.85m.5-12.85h4.2v13.35h-4.7v-.5m31.325 27.2l-9.775-7.75v-9.05h2.1m-65.375-33.95h9.775v36m9-4.75h6.65v11l-14.1 10.3-2.325-1.875m-9-50.675H3289v43l9.575 7.675M3275.25 21.7h3.75l4 3.95V64.7l-10.95 8.3v-3.725m-4.7.05V73l-2.375-1.9m10.275-49.4h-14.45l-3.85 4.2v38.8l8.025 6.4m-22.125-49.4h4.05l4.15 3.9v19.3l-15.1 10.95-.05 12.825m0 .7V73l-2.525-1.925m9.475-49.375h-14.25l-3.6 4.05V64.7l8.375 6.375m2.575-33.025V42l4.75-3.55V31.9h-4.6m-.15 6.15V31.9h.15m31.7.5h-.45v12.85m.45-12.85h4.25v13.35h-4.7v-.5m4.7 24.025V56.4h-4.7v12.925m32-11.625v3.95l4.7-3.9v-4.8h4.3M3171.875 21.7h3.625l3.4 4.15v3.875m0 .45v4.675h-10.95V33.6m-4.7 0v5.65l15.65 8.3V64.8l-14 9.45-3.1-2.45m-6.1-16.15h7.5m8.675-33.95H3155.7l-2.85 3.55v19l15.1 8.6v4.8l-4.7 3.85v-5.85h-.05m15.7-25.925v.45m-10.95 3.425v-1.7h-4.7v1.7m72.65 35.075v.7M3140.55 21.7h2.45l3.95 3.95V64.7L3136 73v-4.925m-4.7.175V73l-3.125-2.5m12.375-48.8h-15.8l-3.8 4.2v38.8l7.225 5.8M3131.3 44v1.75h4.7V32.4h-4.2m-.5 11.6V32.4h.5m-55.25-10.7h2.45l4 3.95V64.7l-10.95 8.3v-4.975m-4.7.05V73l-3.175-2.55m12.375-48.75h-15.75l-3.85 4.2v38.8l7.225 5.75m25.6-48.75h9.575v34.75m10.1-3.5h5.55v11l-14.1 10.3-3.125-2.525m-8-50.025H3089v43l8.775 7.025m1.575-15.275v5.2l4.7-3.9v-4.8h5.4m52.35 18.85l-8.95-7.1v-9.05h2.85M3136 68.075V56.4h-4.7v11.85m-87.15-46.55h2.75l4.15 3.9v19.3l-15.1 10.95-.025 11.65m0 .625L3035.9 73l-3.375-2.575M3044.15 21.7h-15.55l-3.6 4.05V64.7l7.525 5.725m3.425-33.625V42l4.75-3.55V31.9h-4.6m-.15 4.9v-4.9h.15m31.7.5h-.45V44m.45-11.6h4.25v13.35h-4.7V44m-31.425 23.5v.625m36.125-.1V56.4h-4.7v11.675M2972.975 21.7h2.525l3.4 4.15v2.625m0 .45v5.925h-10.95v-2.5m-4.7 0v6.9l15.65 8.3V64.8l-14 9.45-3.925-3.1m-4.5-15.5h6.125m10.375-33.95H2955.7l-2.85 3.55v19l15.1 8.6v4.8l-4.7 3.85v-5.85h-.65m5.35-23.3v-.45h-4.7v.45m15.65-3.875v.45m-37.1-7.225h1.2l3.95 3.95V64.7L2936 73v-6.175m-4.7.175v6l-3.95-3.175M2941.8 21.7h-17.05l-3.8 4.2v38.8l6.4 5.125m3.95-27.075v3h4.7V32.4h-4.2m-.5 10.35V32.4h.5m29.175 38.75l-8.125-6.45v-9.05h3.625M2936 66.825V56.4h-4.7V67m-41.375-45.3h9.425v33.5m11.2-2.25h4.45v11l-14.1 10.3-3.925-3.15-7.975-6.4v-43h.925m-12.125 0h1.2l4 3.95V64.7l-10.95 8.3v-6.225m-4.7.05V73l-4-3.2-6.4-5.1V25.9l3.85-4.2h17m-32.3 0h1.4l4.15 3.9v19.3l-15.1 10.95-.025 10.4m0 .625L2835.9 73l-4.25-3.225M2845.5 21.7h-16.9l-3.6 4.05V64.7l6.65 5.075m4.45-37.875h-.15V42l4.75-3.55V31.9h-4.6zm31.25 10.85v3h4.7V32.4h-4.25m-.45 10.35V32.4h.45m4.25 34.375V56.4h-4.7v10.425m-31.425-.575v.625M2899.35 55.2v6.45l4.7-3.9v-4.8h6.5m-147.3 3.3v5.25l4.7-3.85v-4.8l-15.1-8.6v-19l2.85-3.55h19.8l3.4 4.15v9h-10.95V31.9h-4.7v7.35l15.65 8.3V64.8l-14 9.45-12.05-9.55m-21.55 7.8v.5l-10.35-8.3V25.9l3.8-4.2H2743l3.95 3.95V64.7L2736 73V56.4h-4.7v.55m4.7-11.2V32.4h-4.7v13.35h4.7zm-68.65 26.9V73l-10.4-8.3V25.9l3.85-4.2h18.2l4 3.95V64.7l-10.95 8.3V56.4h-4.7v.6m36.7.75v-4.8H2715v11l-14.1 10.3-11.9-9.55v-43h10.35v35.75m-63.4-25.55V42l4.75-3.55V31.9h-4.75zm.3 23.75l-.3.2-.05 17.15-10.9-8.3V25.75l3.6-4.05h18.3l4.15 3.9v19.3l-7.6 5.5m28.6-4.65V32.4h-4.7v13.35h4.7zm-107.7 5.05l-11.5-6.55v-19l2.85-3.55h19.8l3.4 4.15v9h-10.95V31.9h-4.7v7.35l15.65 8.3V64.8l-14 9.45-12.05-9.55m-31.7.15l-.2-.15V25.9l3.8-4.2H2543l3.95 3.95V64.7L2536 73V56.4h-4.7v.4m4.7-11.05V32.4h-4.7v13.35h4.7zm-31.95 12v-4.8H2515v11l-14.1 10.3-11.9-9.55v-43h10.35v19.1m-42.4 23.7V25.9l3.85-4.2h18.2l4 3.95V64.7l-10.95 8.3V56.4h-4.7v.6m4.7-11.25V32.4h-4.7v13.35h4.7zm-35.75 9.85l-.35.25-.05 17.15-10.9-8.3V25.75l3.6-4.05h18.3l4.15 3.9v19m-15.1-12.7V42l4.75-3.55V31.9h-4.75zm-83.1 12.3V25.25l2.85-3.55h19.8l3.4 4.15v9h-10.95V31.9h-4.7v7.35l15.65 8.3V64.8l-14 9.45-12.05-9.55m-31.9-18.1V25.9l3.8-4.2H2343l3.95 3.95V64.7L2336 73V56.4h-4.7v.4m4.7-11.05V32.4h-4.7v13.35h4.7zm-79.05.95V25.9l3.85-4.2h18.2l4 3.95V64.7l-10.95 8.3V56.4h-4.7v.4m4.7-11.05V32.4h-4.7v13.35h4.7zm32 12v-4.8H2315v11l-14.1 10.3-11.9-9.55v-43h10.35v9.8m-63.4 24.8l-.05 16.7-10.9-8.3V25.75l3.6-4.05h18.3l4.15 3.9v8.7m-15.1-2.4V42l4.75-3.55V31.9h-4.75zm-83.1-6.35v-.3l2.85-3.55h19.8l3.4 4.15v9h-10.95V31.9h-4.7v7.35l15.65 8.3V64.8l-14 9.45-12.05-9.55v-.45m-28.1-42.55H2143l3.95 3.95V64.7L2136 73V56.4h-4.7v.55m4.7-11.2V32.4h-4.7v13.35h4.7zm-31.95 12v-4.8H2115v11l-14.1 10.3-11.9-9.55v-43h10.35v.6m-27.3 23.45V32.4h-4.7v13.35h4.7zM2061.4 21.7h17.6l4 3.95V64.7l-10.95 8.3V56.4h-4.7v.3m-31.4-.5l-.05 16.8-10.9-8.3V25.75l3.6-4.05h18.3m-10.95 10.2V42l4.75-3.55V31.9h-4.75zm-71.5-10.2h11.05l3.4 4.15v9h-10.95V31.9h-4.7v7.35l15.65 8.3V64.8l-14 9.45-12.05-9.55v-.4m-19.25-42.6h9.4l3.95 3.95V64.7L1936 73V56.4h-4.7v.3m4.7-10.95V32.4h-4.7v13.35h4.7zm-63.95 0V32.4h-4.7v13.35h4.7zm-.5-24.05h7.45l4 3.95V64.7l-10.95 8.3V56.4h-4.7v.5m36.7.85v-4.8H1915v11l-14.1 10.3-11.9-9.55V26.9m-52.65 28.7l-.4.25-.05 17.15-10.9-8.3V25.75l3.6-4.05h9.6m-2.25 10.2V42l4.75-3.55V31.9h-4.75zM1743 21.7l3.95 3.95V64.7L1736 73V56.4h-4.7v.35m44.2-35.05l3.4 4.15v9h-10.95V31.9h-4.7v7.35l15.65 8.3V64.8l-14 9.45-12.05-9.55v-.25M1736 45.75V32.4h-4.7v13.35h4.7zm-31.95 11.8v-4.6H1715v11l-14.1 10.3-11.9-9.55V39.9m-16.95 5.85V32.4h-4.7v13.35h4.7zm7-24l3.95 3.9V64.7l-10.95 8.3V56.4h-4.7m-31.4-24.5V42l4.75-3.55V31.9h-4.75zm.25 23.8l-.25.15-.05 17.15-10.9-8.3V25.75l3.6-4.05m-60.25 13.15h-.4V31.9h-4.7v7.35l15.65 8.3V64.8l-14 9.45-11.85-9.4m-6.1-32.5V64.7L1536 73V56.4h-3.8m3.8-10.65V32.4h-4.7v13.35h4.7zm-63.95 0V32.4h-4.7v13.35h4.7zM1483 32v32.7l-10.95 8.3V56.4h-4.55m36.55 1.35v-4.8H1515v11l-14.1 10.3-11.9-9.55V47.25m-53.05-15.35V42l4.75-3.55V31.9h-4.75zm.35 23.75l-.35.2-.05 17.15-10.9-8.3V31.3m-53.35 12.4l7.25 3.85V64.8l-14 9.45-12.05-9.55v-.35M1336 45.75V32.4h-4.7v13.35h4.7zm-31.95 12v-4.8H1315v11l-14.1 10.3-11.9-9.55v-.25m57.95-20.55v20.8L1336 73V56.4h-4.65m-59.3-10.65V32.4h-4.7v13.35h4.7zm-36.1-13.85V42l4.75-3.55V31.9h-4.75zm0 24l-.05 17.1-10.9-8.3V43.25m58-.25v21.7l-10.95 8.3V56.4h-4.7M1136 45.75V32.4h-4.7v13.35h4.7zm10.95 10.5v8.45L1136 73V56.4h-4.7v.55m47.6-8.8V64.8l-14 9.45-12.05-9.55v-.5m-80.8-18.45V32.4h-4.7v13.35h4.7zM1083 55.4v9.3l-10.95 8.3V56.4h-4.7m36.7 1.35v-4.8H1115v11l-13.75 10.1m-65.3-42.15V42l4.75-3.55V31.9h-4.75zm-57.05 28v4.9l-14 9.45-12.05-9.55m83.1-8.45L1035.9 73l-10.9-8.3V53.45m-89-7.7V32.4h-4.7v13.35h4.7zm-31.95 11.4v-4.2H915v11l-3.45 2.55m35.2-1.65L936 73V56.4h-4.7m-59.25-10.65V32.4h-4.7v13.35h4.7zm-36.1-13.85V42l4.75-3.55V31.9h-4.75zm.3 23.75l-.3.2L835.9 73 825 64.7v-.45m58 .45L872.05 73V56.4h-4.7v.55M736 45.75V32.4h-4.7v13.35h4.7zm2.6 25.3L736 73V56.4h-4.7v.55M776 66.8l-11.1 7.45-12.05-9.55v-.4m-80.8-18.55V32.4h-4.7v13.35h4.7zm2.5 25.35l-2.5 1.9V56.4h-4.4m36.4.65v-4.1H715v4.55m-79.05-25.6V42l4.75-3.55V31.9h-4.75zm0 23.95L635.9 73l-2.55-1.95M536 45.75V32.4h-4.7v13.35h4.7zm-32.15 12.2l.2-.2v-4.8h8.6M536 66.35V56.4h-4.7v.65m33.35 17l-11.8-9.35m-80.8-18.95V32.4h-4.7v13.35h4.7zm-36.1-13.85V42l4.75-3.55V31.9h-4.75zm.45 23.65l-.45.3V68.7m36.1-3.85V56.4h-4.45M336 45.75V32.4h-4.7v13.35h4.7zm-.1 10.65h-4.6v.55m27.05 12.1l-5.5-4.35v-.25m-80.8-18.7V32.4h-4.7v13.35h4.7zm-.3 10.65H268m36.05 1v-4.25m-68.1-21.25V42l4.75-3.55V31.9h-4.75zm0 23.95v3.25"/><g id="a"><path fill-opacity=".0039" d="M2835.9 66.25v.6l.2-.1-.2-.5m9.6-44.55l-.15-.15h-23.8l-1.1 1.2V61.7l10.85 8.3.35-.25-6.65-5.05V25.75l3.6-4.05h16.9m-9.4 10.2v3.55l-.15.1V42l4.75-3.55V31.9h-4.6m35.95 24.5h-4.7v10.4l.45-.3V70l4.25-3.25V56.4m0-24h-4.25v10.35h-.45v3h4.7V32.4m5.75-10.7l-.15-.15h-23.45l-1.5 1.65v38.5l10.4 8.3.25-.2-6.4-5.1V25.9l3.85-4.2h17m26.15 23.75l-4.05 3.5v5.8l-.55.45v6.45l4.7-3.9v-4.8h6.5l-6.6-7.5m-14.05-23.9h-5.1V61.7l11.95 9.55.2-.15-7.95-6.4v-43h.9v-.15M2936 56.4h-4.7V67l.5-.35V70l4.2-3.2V56.4m5.8-34.7l-.15-.15H2918l-1.25 1.35v38.8l10.35 8.3.25-.2-6.4-5.1V25.9l3.8-4.2h17.05m-5.8 10.7h-4.2v10.35h-.5v3h4.7V32.4m16.85 23.25h3.6l-4.3-7.1-4.05 4.6v9.05l12.05 9.55.8-.6-8.1-6.45v-9.05m26.05-27.2v.45l.25-.15-.25-.3m-10.95 3.9v-.45h-4.7v.45h4.7m5-10.65l-.1-.15h-23.05l-1.7 2.2v18l15.1 8.6v4.8l-.6.5h.65v5.85l4.7-3.85v-4.8l-15.1-8.6v-19l2.85-3.55h17.25z"/><path fill="#FFF" d="M2846.9 21.7H2828.6l-3.6 4.05V64.7l6.65 5.05 4.25 3.25v-6.75l.05-10.4 15.1-10.95V25.6l-4.15-3.9m-10.8 10.2h4.6v6.55l-4.75 3.55V31.9h.15m42.9-10.2h-18.2l-3.85 4.2v38.8l6.4 5.1 4 3.2V56.4h4.7V73l10.95-8.3V25.65l-4-3.95m-11.2 10.7h4.25v13.35h-4.7V32.4h.45m22.1-10.7h-.9v43l7.95 6.4 3.95 3.15 14.1-10.3v-11h-10.95v4.8l-4.7 3.9V21.7h-9.45m53.1 0h-18.25l-3.8 4.2v38.8l6.4 5.1 3.95 3.2V56.4h4.7V73l10.95-8.3V25.65L2943 21.7m-11.2 10.7h4.2v13.35h-4.7V32.4h.5m43.7-10.7h-19.8l-2.85 3.55v19l15.1 8.6v4.8l-4.7 3.85v-5.85h-10.4v9.05l8.1 6.45 3.95 3.1 14-9.45V47.55l-15.65-8.3V31.9h4.7v2.95h10.95v-9l-3.4-4.15m71.4 0h-18.3l-3.6 4.05V64.7l7.5 5.7 3.4 2.6v-5.5l.05-11.65 15.1-10.95V25.6l-4.15-3.9m-6.2 10.2v6.55l-4.75 3.55V31.9h4.75m58.65-10.2H3089v43l8.75 7 3.15 2.55 14.1-10.3v-11h-10.95v4.8l-4.7 3.9V21.7M3083 25.65l-4-3.95h-18.2l-3.85 4.2v38.8l7.2 5.75 3.2 2.55V56.4h4.7V73l10.95-8.3V25.65m-15.65 6.75h4.7v13.35h-4.7V32.4M3143 21.7h-18.25l-3.8 4.2v38.8l7.2 5.8 3.15 2.5V56.4h4.7V73l10.95-8.3V25.65L3143 21.7m-11.2 10.7h4.2v13.35h-4.7V32.4h.5m43.7-10.7H3155.7l-2.85 3.55v19l15.1 8.6v4.8l-4.7 3.85v-5.85h-10.4v9.05l8.95 7.1 3.1 2.45 14-9.45V47.55l-15.65-8.3V31.9h4.7v2.95h10.95v-9l-3.4-4.15m71.4 0h-18.3l-3.6 4.05V64.7l8.35 6.35 2.55 1.95v-4.35l.05-12.8 15.1-10.95V25.6l-4.15-3.9m-6.2 10.2v6.55l-4.75 3.55V31.9h4.75m38.3-10.2h-18.2l-3.85 4.2v38.8l8 6.4 2.4 1.9V56.4h4.7V73l10.95-8.3V25.65l-4-3.95m-11.65 10.7h4.7v13.35h-4.7V32.4m32-10.7H3289v43l9.55 7.65 2.35 1.9 14.1-10.3v-11h-10.95v4.8l-4.7 3.9V21.7m39.95 0h-14.55l-3.8 4.2v38.8l8.05 6.45 2.3 1.85V56.4h4.7V73l10.95-8.3V25.65L3343 21.7h-3.7m-8 10.7h4.7v13.35h-4.7V32.4m44.2-10.7h-19.8l-2.85 3.55v19l15.1 8.6v4.8l-4.7 3.85v-5.85h-10.4v9.05l9.75 7.75 2.3 1.8 14-9.45V47.55l-15.65-8.3V31.9h4.7v2.95h10.95v-9l-3.4-4.15m75.55 23.2V25.6l-4.15-3.9h-18.3l-3.6 4.05V64.7l9.25 7.05 1.65 1.25V69.9l.05-14.05 15.1-10.95m-15.1-12.25v-.75h4.75v6.55l-4.75 3.55V32.65M3483 64.7V25.65l-4-3.95h-18.2l-.7.75-3.15 3.45v38.8l8.8 7.05 1.6 1.25V56.4h4.7V73l10.95-8.3m-15.65-32.3h4.7v13.35h-4.7V32.4m32-10.7H3489v43l10.35 8.3 1.55 1.25 14.1-10.3v-11h-10.95v4.8l-4.7 3.9V21.7m25.4 0l-.7.75-3.1 3.45v38.8l8.85 7.1 1.5 1.2V56.4h4.7V73l10.95-8.3V25.65L3543 21.7h-18.25m6.55 11.45v-.75h4.7v13.35h-4.7v-12.6m44.2-11.45h-19.8l-2.85 3.55v19l15.1 8.6v4.8l-4.7 3.85v-5.85H3552.85v9.05l10.6 8.4 1.45 1.15 14-9.45V47.55l-15.65-8.3V31.9h4.7v2.95h10.95v-9l-3.4-4.15m75.55 23.2V25.6l-4.15-3.9h-18.3l-3.6 4.05V64.7l10.1 7.7.8.6V71.15l.05-15.3 15.1-10.95m-15.1-13h4.75v6.55l-4.75 3.55V31.9m24.85-10.2l-1.85 2-2 2.2v38.8l9.65 7.7.75.6V56.4h4.7V73l10.95-8.3V25.65l-4-3.95h-18.2m6.55 10.7h4.7v13.35h-4.7V32.4m32-10.7H3689v43l11.15 8.95.75.6 14.1-10.3v-11h-10.95v4.8l-4.7 3.9V21.7m47.6 3.95L3743 21.7h-18.25l-1.8 2-2 2.2v38.8l9.7 7.75.65.55V56.4h4.7V73l10.95-8.3V25.65m-15.65 6.75h4.7v13.35h-4.7V32.4m47.6 2.45v-9l-3.4-4.15h-19.8l-2.85 3.55v19l15.1 8.6v4.8l-4.7 3.85v-5.85H3752.85v9.05l11.4 9.05.65.5 14-9.45V47.55l-15.65-8.3V31.9h4.7v2.95H3778.9m78.9-9.9l-.85.95v38.8l10.4 8.3V56.4h4.7V73l6.7-5.1 4.25-3.2V25.65l-4-3.95h-18.2l-3 3.25m9.55 20.8V32.4h4.7v13.35h-4.7m-16.3-.85V25.6l-4.15-3.9h-18.3l-3.6 4.05V64.7l10.9 8.3v-.6l.05-16.55 15.1-10.95m-15.1-9.75V31.9h4.75v6.55l-4.75 3.55V35.15m53.1-13.45h-.05v43l11.9 9.55 2.85-2.05 2.8-2.1q1.0305-.7395 2.05-1.5l6.4-4.65v-11h-10.95v4.8l-4.7 3.9V21.7h-10.3m57.9 3.95L3943 21.7h-18.25l-2.95 3.25-.85.95v38.8l10.35 8.3V56.4h4.7V73l6.75-5.15 4.2-3.15V25.65m-15.65 6.75h4.7v13.35h-4.7V32.4m47.6 2.45v-9l-3.4-4.15h-19.8l-2.85 3.55v19l15.1 8.6v4.8l-4.7 3.85v-5.85h-10.4v9.05l12.05 9.55 4.7-3.2 9.3-6.25V47.55l-15.65-8.3V31.9h4.7v2.95h10.95m72.15 10.05V25.6l-4.15-3.9h-18.3l-3.6 4.05V64.7l10.8 8.25.1.05.05-16.5v-.65l10.5-7.65 4.6-3.3m-15.1-9v-4h4.75v6.55l-4.6 3.45-.15.1v-6.1m21.15-10.2l-.15.2v38.8l10.4 8.3V56.4h4.7V73l6.7-5.1 4.25-3.2V25.65l-4-3.95h-18.2l-3.7 4m10.25 10.7v-4h4.7v13.35h-4.7V36.4M4089 21.7v43l11.9 9.55 13.55-9.9.55-.4v-11h-10.95v4.8l-4.15 3.45-.55.45V21.7H4089m57.95 3.95L4143 21.7h-18.25l-3.65 4-.15.2v38.8l10.35 8.3V56.4h4.7V73l6.75-5.15 4.2-3.15V25.65m-15.65 6.75h4.7v13.35h-4.7V32.4m47.05 2.45h.55v-9l-3.4-4.15h-19.8l-.3.35-2.55 3.2v19l15.1 8.6v4.8l-4.7 3.85v-5.85H4152.85v9.05l12.05 9.55 13.65-9.25.35-.2V47.55l-15.45-8.2-.2-.1V31.9h4.7v2.95h10.4z"/><path fill-opacity=".149" d="M3035.9 67.5v.6l.2-.1-.2-.5m8.25-45.8l-.15-.15h-21.25l-2.3 2.45v38.95l10.85 8.3 1.2-.85-7.5-5.7V25.75l3.6-4.05h15.55m-3.45 16.75V31.9h-4.6v4.8l-.15.1V42l4.75-3.55m63.35 19.3v-4.8h5.4l-5.5-6.25-4.05 3.5V56l-.55.45v5.2l4.7-3.9M3089 21.7h.75v-.15h-4.95v41.4l11.95 9.55 1-.8-8.75-7v-43m-21.2 46.05v3.5l4.25-3.25V56.4h-4.7v11.65l.45-.3m-7-46.05h15.75l-.15-.15h-21.1l-2.6 2.9v38.5l10.4 8.3 1.05-.8-7.2-5.75V25.9l3.85-4.2m7 22.3h-.45v1.75h4.7V32.4h-4.25V44m68.2 12.4h-4.7v11.85l.5-.35v3.35l4.2-3.2V56.4m4.55-34.7l-.15-.15h-21.3l-2.35 2.6v38.8l10.35 8.3 1.05-.75-7.2-5.8V25.9l3.8-4.2h15.8M3136 32.4h-4.2V44h-.5v1.75h4.7V32.4m24.15 40.6l1.65-1.2-8.95-7.1v-9.05h2.85l-3.55-5.85-4.05 4.6v9.05l12.05 9.55m3.1-39.4h4.7v-1.7h-4.7v1.7m15.65-3.9v.45l.25-.15-.25-.3m-7.05-8l-.1-.15h-20.95l-2.7 3.45v18l15.1 8.6v4.05h.05v5.85l4.7-3.85v-4.8l-15.1-8.6v-19l2.85-3.55h16.15z"/><path fill-opacity=".302" d="M3235.9 68.65v.7l.2-.1-.2-.6m6.95-46.95l-.15-.15h-18.8l-3.45 3.7V64.2l10.85 8.3 2.05-1.45-8.35-6.35V25.75l3.6-4.05h14.25m-2.15 16.75V31.9h-4.6v6.05l-.15.1V42l4.75-3.55M3267.8 69v3.5l4.25-3.25V56.4h-4.7v12.9l.45-.3m-7-47.3h14.45l-.15-.15h-18.7l-3.7 4.15v38.5l10.4 8.3 1.85-1.4-8-6.4V25.9l3.85-4.2m6.55 23.55v.5h4.7V32.4h-4.25v12.85h-.45m36.7 7.7h4.3l-4.4-5-4.05 3.5v5.8l-.55.45v3.95l4.7-3.9v-4.8M3289 21.7h.55v-.15h-4.75V64.2l11.95 9.55 1.8-1.4-9.55-7.65v-43m47 34.7h-4.7v13.1l.5-.35v3.35l4.2-3.2V56.4m0-24h-4.2v12.85h-.5v.5h4.7V32.4m-11.25-10.7h14.55l-.15-.15h-18.9l-3.5 3.85v38.8l10.35 8.3 1.9-1.35-8.05-6.45V25.9l3.8-4.2m28.1 33.95h2.1l-2.8-4.6-4.05 4.6v9.05l12.05 9.55 2.45-1.8-9.75-7.75v-9.05m10.4-20.8h4.7V31.9h-4.7v2.95m15.65-3.9v.45l.25-.15-.25-.3m-8.15-9.25l-.55-.15h-18.45l-3.65 4.7v18l15.1 8.6v2.8h.05v5.85l4.7-3.85v-4.8l-15.1-8.6v-19l2.85-3.55h15.05z"/><path fill-opacity=".451" d="M3435.9 69.9v.7l.2-.1-.2-.6m-7.3-48.2h11.35l-.45-.15h-14.45l-4.6 4.95v38.95l10.85 8.3 2.95-2-9.25-7.05V25.75l3.6-4.05m7.35 10.2v.75h.15v6.55l-.15.1V42l4.75-3.55V31.9h-4.75m36.1 24.5h-4.7v14.15l.45-.3v3.5l4.25-3.25V56.4m-11.95-33.95h-3.4l-4 4.5v38.5l10.4 8.3 2.65-2-8.8-7.05V25.9l3.15-3.45m11.95 9.95h-4.7v.75h.45v12.6h4.25V32.4m32 20.55h3.2l-3.3-3.75-4.05 3.5v5.8l-.55.45v2.7l4.7-3.9v-4.8M3489 21.7h.35v-.15h-3.75l-.8.9v43l11.95 9.55 2.6-2-10.35-8.3v-43m42.8 48.7v3.35l4.2-3.2V56.4h-4.7v14.35l.5-.35m-11.25-47.95l-3.8 4.2v38.8l10.35 8.3 2.7-1.95-8.85-7.1V25.9l3.1-3.45h-3.5m10.75 10.7h.5v12.6h4.2V32.4h-4.7v.75m20.85 19.15l-4.05 4.6v9.05l12.05 9.55 3.3-2.4-10.6-8.4v-9.05h1.3l-2-3.35m22-16.2l1.7-1.25h-7.9V31.9h-4.7v4.2h10.9m4.75-3.9v.45l.25-.15-.25-.3m-12.8-10.5l-.55-.15h-12.85l-4.6 5.95v18l15.1 8.6v1.55h.05v5.85l4.7-3.85v-4.8l-15.1-8.6v-19l2.85-3.55h10.4z"/><path fill-opacity=".651" d="M3635.9 71.15v.7l.2-.1-.2-.6m-7.3-49.45h7.5l-1.25-.4h-8.45l-5.95 6.45V66.7l10.85 8.3 3.8-2.6-10.1-7.7V25.75l3.6-4.05m12.1 10.2h-4.75v2h.15v6.55l-.15.1V42l4.75-3.55V31.9m31.35 24.5h-4.7v15.45l.45-.35V75l4.25-3.25V56.4m-13.1-32.7h-2.25l-4 4.5v38.5l10.4 8.3 3.5-2.6-9.65-7.7V25.9l2-2.2m13.1 8.7h-4.7v2h.45v11.35h4.25V32.4m27.3 27.8v1.45l4.7-3.9v-4.8h2.1l-2.2-2.5-4.05 3.5v5.8l-.55.45M3689 21.7h.2l-.05-.4h-2.2l-2.15 2.4v43l11.95 9.55 3.4-2.6L3689 64.7v-43m38.1 53.3l3.55-2.55-9.7-7.75V25.9l2-2.2h-2.4l-3.8 4.2v38.8l10.35 8.3m8.9-18.6h-4.7V72l.5-.35V75l4.2-3.2V56.4m0-24h-4.7v2h.5v11.35h4.2V32.4m16.15 21.15l-4.05 4.6v9.05l12.05 9.55 4.1-3-11.4-9.05v-9.05h.55l-1.25-2.1m3.55-31.85h5.75l-1.5-.4h-6.1l-5.75 7.45v18l15.1 8.6v.3h.05v5.85l4.7-3.85v-4.8l-15.1-8.6v-19l2.85-3.55m12.25 13.15V31.9h-4.7v5.45h10.9l3.45-2.5h-9.65m10.95-1.4v.45l.25-.15-.25-.3z"/><path fill-opacity=".851" d="M3867.35 32.4v3.25h.45v10.1h4.25V32.4h-4.7m-10.65-7.45l-4 4.5v38.5l10.4 8.3 4.7-3.5v3.5l10.95-8.3v-.05l-6.7 5.1V56.4h-4.7V73l-10.4-8.3V25.9l.85-.95h-1.1m-28.1-3.25h3.65l-1.25-.4h-3.4l-7.15 7.7v38.95l10.85 8.3 4.8-3.25-.2-.6v.6l-10.9-8.3V25.75l3.6-4.05m7.35 10.2v3.25h.15v6.55l-.15.1v.2l4.75-3.55V31.9h-4.75m68.1 25.85v-4.8h1l-1.1-1.25-4.05 3.5V61l-.55.45v.2l4.7-3.9M3889 21.3h-.9l-3.3 3.65v43l11.95 9.55 7-5.3-2.85 2.05-11.9-9.55v-43h.05l-.05-.4m31.55 3.65l-3.8 4.2v38.8l10.35 8.3 4.7-3.35v3.35l10.95-8.3v-.1L3936 73V56.4h-4.7V73l-10.35-8.3V25.9l.85-.95h-1.25M3936 32.4h-4.7v3.25h.5v10.1h4.2V32.4m16.85 23.55l-.7-1.15-4.05 4.6v9.05l12.05 9.55 9.45-6.95-4.7 3.2-12.05-9.55v-8.75m2.85-34.25h1.1l-1.5-.4h-.45l-6.75 8.7v18l13.4 7.65h1.75v5.85l4.7-3.85v-4.8l-15.1-8.6v-19l2.85-3.55m23.2 13v.15h-10.95V31.9h-4.7v6.7h10.9l5-3.6-.25-.3z"/><path d="M4028.6 21.7h1.3l-1.55-.5-7.9 8.55V68.7l10.85 8.3 4.8-3.25-.3-.8-10.8-8.25V25.75l3.6-4.05m17.85 27.2v-.7l-10.5 7.65v.65l10.5-7.6m-10.5-17v4h.15v6l4.6-3.45V31.9h-4.75m31.4 4.5h.45v9.35h4.25V32.4h-4.7v4m-10.4-10.5l.15-.2h-.4l-4 4.5v38.5l10.4 8.3 4.7-3.5V77l10.95-8.3v-.8l-6.7 5.1V56.4h-4.7V73l-10.4-8.3V25.9m47.1 31.85v-4.8h.35l-.45-.5-4.05 3.5v5.25l4.15-3.45M4089 22.25l-.15-1.05-4.05 4.5v43l11.95 9.55 18-13.55-.3-.35-13.55 9.9-11.9-9.55V22.25m47 34.15h-4.7V73l-10.35-8.3V25.9l.15-.2h-.55l-3.8 4.2v38.8l10.35 8.3 4.7-3.35V77l10.95-8.3v-.85L4136 73V56.4m0-24h-4.7v4h.5v9.35h4.2V32.4m16.85 24.3l-.7-1.15-4.05 4.6v9.05l12.05 9.55 18.5-13.55-.1-.2-13.65 9.25-12.05-9.55v-8m2.55-34.65l-.5-.1-6.8 8.8v18l12.1 6.9h3.05v5.85l4.7-3.85v-4.8l-15.1-8.6v-19l2.55-3.2m23.75 13.7l-.8-.9h-10.4V31.9h-4.7v7.35l.2.1h10.7l5-3.6z"/></g></defs><g><use xlink:href="#a"/><use xlink:href="#b"/><animateTransform attributeName="transform" type="translate" values="0 0;-200 0;-400 0;-600 0;-800 0;-1000 0;-1200 0;-1400 0;-1600 0;-1800 0; -2000 0;-2200 0;-2400 0;-2600 0;-2800 0;-3000 0;-3200 0;-3600 0;-3600 0;-3800 0;-4000 0;" calcMode="discrete" dur="0.7s" fill="freeze" repeatCount="1"/></g></svg>